<?xml version="1.0" encoding="utf-8"?>
<!-- Generator: Adobe Illustrator 24.1.3, SVG Export Plug-In . SVG Version: 6.00 Build 0)  -->
<svg version="1.1" id="Layer_1" xmlns="http://www.w3.org/2000/svg" xmlns:xlink="http://www.w3.org/1999/xlink" x="0px" y="0px"
	 width="972.1px" height="253.7px" viewBox="0 0 972.1 253.7" enable-background="new 0 0 972.1 253.7" xml:space="preserve">
<path fill="#1E1E1C" d="M918.7,47c8.1-1.4,12.2,2.7,20.2,3.1c8,0.4,17.3-4.5,20.2-8.3c-1.2,0.2-14.7,4.1-20,0.2
	c-5.2-3.9-15.3-3.3-21.1-2.7c-5.8,0.6-9.9,1-16.5,0S887,28,879.9,23.5c-7.2-4.5-6.8,2.5-14.2,2.1c-7.4-0.4-15.5,6.8-22.1,17.7
	c-6.6,10.9-12.8,7.2-14.7,3.7c-1.9-3.5,1.6-5.8,3.1-12.2c10.5,0.4,11.3-7,10.9-12c-0.4-5-13.6-4.8-25-9.7
	c-11.4-4.8-37.6,0.2-49.9,3.5c-12.2,3.3-41.7-1-46.4-1.7c-4.7-0.8-18.2,7.2-32.6,13.6c-14.4,6.4-22.5-2.1-21.3-10.7c0,0,0,0-2.5,2.1
	c-2.5,2.1-4.5,13.2-2.1,19.2c-3.7-0.8-15.9-0.6-19.8-0.6s-54.6,9.7-42.1,15.7c12.4,6,48.5,9.5,55.7,22.9
	c7.2,13.4,36.5,24.4,46.5,23.6c-11.9,25.2,10.5,50.6,22.3,53.6s30.1,19.3,25.6,28.6c-4.6,9.3-27.2,5.4-35.7,3.7
	c-8.6-1.8-14.4-11.7-15.4-15.2c-1.1-3.5,1.4-11.9-0.9-15.1c-2.3-3.2-6.7-1.6-7.7-3c-1.1-1.4-0.5-5.4-3-8.2c-2.5-2.8-3.2-3.2-4-5.6
	c-0.9-2.5,0.5-4-1.6-7.4c-2.1-3.3-8.9-2.1-10.3-4.2s3.9-4.2,2.5-7c-1.4-2.8-6.7-1.2-8.6-3.2c-1.9-1.9,1.9-8.2-0.5-10.5
	c-2.5-2.3-9.6-3.7-9.6-3.7s-0.4-6.1-1.9-8.8c-1.6-2.6-10.5-1.9-11.4-3.7c-0.9-1.8-0.4-7.9-0.4-7.9s-8.4-0.7-9.3-1.4
	c-0.9-0.7-2.3-7.9-4.4-7.9c-2.1,0-7.7,0.2-7.7-2.5s-3.7-6-7.2-5.8c-3.5,0.2-4.6,0.2-5.6-2.5c-1.1-2.6-0.2-3.5-3.2-3.5
	c-3,0-9.3-1.4-9.3-1.4s-3.3-8.4-6.1-9.1c-2.8-0.7-7.9,6.5-8.1,5.8c-0.2-0.7-2.8-8.5-4.4-8.5s-5.9,0.5-7.7,0.5
	c-1.7,0-3.3-6.1-5.1-6.6c-1.7-0.5-7.8,3-9.2,1.2c-1.4-1.7-7.7-3.5-7.7-3.5s-7,3.1-8.7,4.4c-1.7,1.2-6.5-7.8-6.5-7.8
	s-4.2,2.3-4.2,6.1c-1.9-1.9-8-5.6-8-5.6s-4.6,3.6-8,5.2c-6.5-8.3-6.2-2-6.7,0.5c-0.9,4.8-4.9-3.2-6.4-2.4c-0.9,0.5-1.7,3.5-2.9,3.5
	c-1.3,0-5.3-4.3-6.7-2.6c-4.1,5-5.4,4.1-7.2,2.9c-1.9-1.2-8-0.6-8.7,0c-0.7,0.6-4.9,5.3-4.9,5.3l-5.6-3c0,0-7,1.4-5.8,6.5l-8-3
	c0,0-1.4,4.2-5.1,4.2c-3.7,0-9.1-0.5-9.1-0.5s-2.4,5.9-4.4,7.3c-1.9,1.4-9.8-4.4-9.8-0.5s-2.4,7.1-5.1,6.6s-9.6-2.6-10.6-1.4
	c-1,1.2-1.6,5.1-1.6,5.1s-9.4-1.7-9.5,1.9c-0.2,3.7-1.1,5.7-1.1,5.7s-8.8-1.3-10.1,2.2s-0.5,7.9-0.5,7.9l-10.1-0.2
	c0,0-3.8,5.3-2.9,10.4c-2.6-0.4-10.2,0.2-10.2,0.2l1.1,6.6c0,0-11.9,0-11.9,2.2s-0.4,10.6-0.4,10.6s-5.7,0-7.9,0.5
	c-2.2,0.5-3.5,8.2-3.5,8.2s-3.1-0.4-4.9,1.5c-1.8,1.8-2.2,10.1-2.2,10.1l-7.9,2.6l2.6,5.1c0,0-9,3.8-8,6.7c0.9,2.9-3.3,5.9-4.8,5.9
	s-1.5,12.6-1.5,12.6s-6.4-0.9-6.2,2.6s-1.1,4.2-4,3.8c0,0-4.9,2.4-5.9,0.2c-0.9-2.2-6.2,2.7-9.9,1.1c-3.7-1.6-4-6.9-1.6-8
	c2.4-1.1-0.7-8,2.4-8c3.1,0,2.6-6.2,6.6-6.2c4,0,2.2-6.9,5.9-6.9c3.7,0,6-6.2,6-6.2s1.3,0.2,5.1,0c3.8-0.2,4.4-7.9,4.4-7.9
	s5.1-2.7,5.7-3.5s0.2-5.5,3.3-6.8c3.1-1.3-2.2-8,3.1-9.7c5.3-1.6-4.4-12.6-1.8-13c2.6-0.4,2-3.7,2-6.2c0-2.6-5.5-7.9-4.2-9
	c1.3-1.1-4-9.1-6-10.6c-2-1.5-2.4-4.4-2.7-6.2c-0.4-1.8-4.8-3.3-4.8-6.2c0-2.9-5.3-2.6-5.3-4.6c0-2-7.7-5.3-9.5-8.5
	c-1.8-3.2-6.5-1.2-7.4-4.1c-0.9-3-10.8-3.5-12.2-1.8c-1.4,1.6-6.2,0.2-8.1-1.2c-1.8-1.4-10.8,2.8-15.4,3.2c-4.6,0.5-13.6,5.3-20.3,9
	C222.7,58.2,202,87,185.6,87s-26.3-14.5-33.4-21.4c-7.1-6.9-30-0.9-41.3-0.2c-11.3,0.7-21-13.5-27-18c-6-4.4-20.9-3.8-23.3-1.3
	c-2.4,2.4-15.1-0.9-21.3,2c-6.2,2.9-2.4,5.3,1.6,7.8c4,2.4-7.3,4.9-11.3,5.6c0,0-14,6-16.4,8.7c0.4,1.3,4.9,8.7,11.3,9.6
	c6.4,0.9,6.4-2.9,9.3-1.3c2.9,1.6-1.8,8-1.8,8s4,3.3,7.8,3.3c3.8,0,10.4-4.4,12-3.8c1.6,0.7-8.9,9.8-3.3,9.8c5.6,0,11.8,1.1,16.4-2
	s6.2-3.3,14.1-4.9c6.1,3.6,26.5,4.9,41.4,0.9c14.9-4,17.8-0.4,22.7,2c4.9,2.4,20.9,26.9,52.7,26.9s47.5-28,54.4-32.2
	c6.9-4.2,18.7-7.6,26.9,4.6c8.2,12.1-14.2,27.4-30.4,36.3c-16.2,8.9-22.4,36.7-22.4,36.7s-7.1-1.1-12-4.4
	c-4.9-3.3-19.8-16.4-19.8-16.4s3.8-0.7,5.1-3.8c-0.7-11.3-15.6-11.3-22-6.9c0-8-12.2-10.7-17.8-10.2c-5.6,0.4-5.8-2.7-10.4-5.1
	c-4.7-2.4-18.4-2.9-22.2,4.7c4.7-0.2,9.8,2.9,14.4,7.1c4.7,4.2,10,8.7,13.3,6.9c0,1.8,1.6,6.7,4.4,7.1c2.9,0.4,0,0-0.2,3.8
	c-0.2,3.8-6.2,6.4-10.4,6.4c-4.2,0-19.5,12.8-21.4,14.6c-2,1.8-2.1-2-7.3-7.9c-5.1-5.9-19.5,0.2-17.8,7.8c8.1-4.8,12.2-0.7,10.6,5.6
	c-1.6,6.3-8.4,4.6-8.9,11.4c-0.5,6.8-11.2,4.1-13.5,1.3c-2.3-2.8-0.2-9.1,1.6-16.3c-5.3,0.8-7.4,13.4-7.4,13.4s-3.3,0-3.4,4.9
	c-0.1,4.9,0.3,9.7,6.9,9.4c6.6-0.3,10.9,6.4,4.3,10.2c-6.6,3.8-9.7-4.5-9.7-4.5s-3.3,9.2,0,16.3c3.3,7.1,7.6,4.1,9.4,5.9
	c1.8,1.8,8.6,1.2,8.6,1.2s0.7-12.4,10.1-9.2c9.4,3.1,2.6,14-3.3,17c7.3,5.8,11.2-0.2,14.8,0.7c3.6,0.8,7.6-3.3,11.2-3.3
	c3.6,0,3.6-8.2-1.5-8.6c-5.1-0.3-1.3-4.1-1.3-8.2c0-4.1,4-5.9,8.9-6.1c4.9-0.2,5.6,8.2,4.8,14.5c5.4-3,6.6-11.9,8.1-17.2
	c1.5-5.3-4.8-5.4-4.8-5.4s-2.3-2.5,0-4.8c12.4-1.5,20.9-17,26.7-17s4.9,3.3,11.7,14.5c6.8,11.2,26.2,23.1,26.2,23.1
	s23.6-1.8,36.8,10.1c13.2,11.9,42.5,14,46,14.2s12,3.1,36.3-3c24.2-6.1,15.2-13.7,28.5-19.1c20.5-8.3,13.4-22.9,17.7-23
	c4.3-0.2,2.4,12.2,3.3,14.5c0.9,2.2,7.2,8.8,15.5,14.8c8.3,6,11.7,2.6,13.9-2.4c0,0,6,5,11.7,4.6c5.7-0.3,10.2-6,12-9.5
	c1.8-3.5,3.2-6.5,7.2-8.7c3.9-2.2,8.1-9.3,11.5-10.4c1.7,3.6,6.3,2.1,7.7,3.9c1.4,1.8,4.5,2.9,7.9,1.5c13.6-0.3,14.3-7.6,14.3-7.6
	s-5.8-0.1-11.6,0c-5.9,0.1-2.1-7,0-9.4c2.1-2.4,7.9-12.8,16.1-10.4c8.3,2.4,5.2,9.4-1.5,13.5c12.8-0.1,13.2-5.1,14.3-12.1
	c1.1-7-4.6-8.6-4.6-8.6s4.9-9-3.5-6.5c-8.4,2.5-14.9-0.8-16.3-4.2c-1.4-3.4,1.7-8.6,6-10.9c4.4-2.4,10.9-0.1,17.8,6.9
	c1.3-13.5-10.9-15.3-15.4-16.6c0-4.2-4.8-4.8-7.3-4.5c-1.8-1.3-4.9-2.2-8.7,0.7c4.1,2.1,3.5,7.2-1.5,9.8c-5.1,2.7-9.4,0.6-11.9-7.2
	s7.6-9.4,17.1-11.6c-8-8.8-17.3-4.8-20.9,1.4c-4.5-1.1-10.1,0.4-10.5,4.2c-3.5,0.3-5.3,6.9-0.4,10.5c4.9,3.6,5.8,10.9-4.4,12.8
	c-10.1,1.8-9-9.7-8.4-14.6c-7.2,2.1-6.9,13.3-6.9,13.3s-2,9.4,4.4,10.2c0,4.4,3.9,7.4,7,8.1c-4.1,0.6-13.2,12.4-16.1,12.4
	c-2.9,0-2.7-14.7-9.4-11.5c-6.7,3.2-3.4-3.5-3.4-3.5c1.1-6.6-8.7-7.7-12.6-7.7c-3.9,0,4.5-12,20.2-26.7
	c15.7-14.6,70.1-52.5,131.4-41.3c61.3,11.2,89.2,66.1,92,69.8c2.7,3.7-17.4,7-24.2,7.8c-6.8,0.8-13.3,5.5-19,5.5
	c-5.7,0-6.2-4.6-2.1-5.2c4.1-0.5,16.3-2.6,20.6-5.1c-3.1-14.6-15.2-19.3-20.8-15.9c15.2,10-1.5,18.3-8.2,18.5
	c-6.7,0.1-7.7-3.6-10.1-9.7c-2.5-6.2-0.7-10.4,8.2-13.5c-8.9-6.6-18.6-1.4-23.1,6.3c-4.5,7.7-1.6,10.9,2.7,14.5
	c4.4,3.6,3.1,12.2-5.5,11.1c-8.6-1.1-9.8-10.8-9.4-15c-4.4,1.6-6,7.4-4.6,10.7c1.4,3.3,1.4,8.1,0.5,8.1c-0.8,0-2.3,4.6,0,6.2
	c2.3,1.5-0.1,5.9,8.2,4.9c8.3-1,13.9,3.1,12.8,8.5c-1.1,5.3-11.1,2.1-17,0.4c4.2,16.3,12.6,11.2,13.1,15c0.5,3.8,5.7,5.1,8.1-0.4
	c2.2,5.9,4.8,7.5,7.7,2.5c-0.8-8.9,2.5-10.1,9.7-10.1c7.2,0,9,6.8,9,9.4c0,2.6-6.2,6-6.7,10.3c20.6-2.2,26.4-16.8,23.9-23.8
	c10.7,2.2,19.1,0,32.3-1.9c13.1-1.9,8.5,15.6,28.1,23.1c12.4,4.7,17.2,21.6,66.4,21.6c21.1,0,39.6-3.8,47.7-10.5
	c4.5,3.2,14,0.7,25.1-1.5c11.1-2.2,12.7,0,19.2-1c6.5-1,16.8-7.7,21.4-7.5c4.6,0.2,11.5,3.6,16.8-2.2c6,1,12.7-1.2,17.1-7.9
	c4.3-6.7,11.1-8.9,14.7-14.7s8.2-7.7,13.5-15.4c27.2,7,26.4-5.5,26.4-5.5s-5.5,2.2-7.9,1.2c-2.4-1-2.2-4.3-1.7-9.4
	c0.5-5,4.6-10.6,10.6-12c6-1.4,11.8,1.2,10.3,11.3c5.1-6.1,5-11.8,5-20c0-8.2-7.5-7.7-13.2-7.2s-8.9,0.5-8.2-5.3
	c0.7-5.8,7.7-7.7,16.3-5.3c-2.6-11.5-16.6-11.3-19.2-12c-2.6-0.7-6.5-2.4-6.7-0.2c-0.2,2.2-3.8,13.5-10.3,13.5
	c-6.5,0-8.2-3.8-8.9-7.7c-0.7-3.8,2.2-7,10.1-7.7c-6.7-5-13.9,0.2-16.3,1c-1.4-0.5-7.9-0.2-6.3,5c-4.8-2.2-8.2,5.8-3.6,6.3
	c4.6,0.5,7.5,8.9,2.6,13c-4.8,4.1-9.9-3.1-12.3-7.7c-5.5,6-1.4,12.3-1.4,12.3s-2.4,5.5,0.2,6.5c2.6,1,1.9,1,7.5,4.1
	c5.5,3.1,11.3-6.3,14.2-8.9c4.6,8.9-18.8,24.8-24.8,27.6c-6,2.9-11.8,11.3-23.8,13.9c-12,2.6-13.5-5.5-20.4-8.7
	c-7-3.1-20.1-0.8-20.1-0.8c-2.9-24.5-47.2-47.2-58.5-51.3c-11.3-4-16.2-12.1-18.6-16.4c-2.3-4.3,0.7-6.5,2.3-6.1
	c1.7,0.3,5.3,3.3,7.6,5.3c2.3,2,13.1,6.1,19.8,6.1c6.6,0,13.3,5.8,15.9,7.6c2.7,1.8,14,2.3,18.4,1.8c4.5-0.5,14,4.3,14,4.3
	s-5.5,0.7-3.3,2c3.7,1.3,16.9,1.3,22.6-2.7c23.6,1.3,32.4-8,34.6-10.3s-1.7-11-3.2-13c0-2.7-2.7-12.1-3.8-13.5c0,0-0.9,9.7-1.3,15.6
	c-0.8-2.8-4.4-8.3-5.7-7c-1.3,1.3-6.1,8.7-6.1,8.7s0-7.5-1.7-13.8c-3.9,7.8-1.5,13.8-7.4,15.9c-5.9,2.1-12.1-4.4-15.6-7
	c-3.4-2.7-9.7-3.6-13.3-7.6c-3.6-4-4.6-11.6-4.6-11.6s-5.9,5.1-9.1,7.2c-3.2,2.1-13.5,0.2-15.7-9.1c-2.3-9.3,1.7-10.6,5.7-14
	c4-3.4,12.1,2.3,15.6,4.6c3.4,2.3,11.2,14.8,11.2,14.8l4.6-11.7c0,0,4.4-0.8,8-2.3c3.6-1.5,6.9,0.2,9.2,5.9
	c2.3,5.7,12.8,10.5,19.5,9.6s16.4-7.5,23.1-7.5c6.7,0,22.4,8.4,28.5,8.4s16.4-6.7,22.2-7.8c5.9-1,21.2,0.8,17.2-2.1
	c-4-2.9-27.5-4.2-35.2-0.8c-7.8,3.4-16.6-0.2-21.8-2.3c-5.2-2.1-16.1-2.7-20.5-1c-4.4,1.7-16.6,3.6-19.7,2.3
	c-3.1-1.3-2.3-5.7-2.3-5.7c7.4,0,23.3-8.1,25.8-11.1c8.9,0.9,11.3,7.4,11.3,7.4l2.7-10.9c0,0,6.6-4.3,6-8c1.9,1.2,5.2,7.9,5.2,7.9
	s-0.4-8.1-3.6-12.7c1.4-3.3-3.9-11.6-3.9-11.6s3.5,3.5,8.9,6.6C896,49.1,910.5,48.3,918.7,47z M810.1,63.2
	c-8.4,0-15.4-5.8-16.4-14.3c7.1,1.7,15.8,0.2,22-3.2c0,0,1.7-0.6,4.2,3.5C822.4,53.3,818.6,63.2,810.1,63.2z"/>
</svg>
